<svg width="37" height="37" viewBox="0 0 37 37" fill="none" xmlns="http://www.w3.org/2000/svg">
<path d="M18.5 0C8.29928 0 0 8.29928 0 18.5C0 28.7007 8.29928 37 18.5 37C28.7007 37 37 28.7007 37 18.5C37 8.29928 28.7007 0 18.5 0ZM18.5 34.6875C9.57406 34.6875 2.31251 27.4259 2.31251 18.5C2.31251 9.57406 9.57406 2.31251 18.5 2.31251C27.4259 2.31251 34.6875 9.57406 34.6875 18.5C34.6875 27.4259 27.4259 34.6875 18.5 34.6875Z" fill="#FF9696"/>
<path d="M19.6562 6.9375H17.3437V18.9787L24.6199 26.255L26.2549 24.6199L19.6562 18.0212V6.9375Z" fill="#FF9696"/>
</svg>
