<svg width="28" height="36" viewBox="0 0 28 36" fill="none" xmlns="http://www.w3.org/2000/svg">
<path fill-rule="evenodd" clip-rule="evenodd" d="M5.6 2.76915C5.6 2.03473 5.895 1.33038 6.4201 0.811065C6.9452 0.291749 7.65739 0 8.4 0H15.8667C16.6093 0 17.3215 0.291749 17.8466 0.811065C18.3717 1.33038 18.6667 2.03473 18.6667 2.76915H21.4667C22.2093 2.76915 22.9215 3.0609 23.4466 3.58021C23.9717 4.09953 24.2667 4.80387 24.2667 5.5383V19.384H22.4V5.5383C22.4 5.29349 22.3017 5.05871 22.1266 4.8856C21.9516 4.7125 21.7142 4.61525 21.4667 4.61525H18.6667C18.6667 5.34967 18.3717 6.05402 17.8466 6.57333C17.3215 7.09265 16.6093 7.3844 15.8667 7.3844H8.4C7.65739 7.3844 6.9452 7.09265 6.4201 6.57333C5.895 6.05402 5.6 5.34967 5.6 4.61525H2.8C2.55246 4.61525 2.31507 4.7125 2.14003 4.8856C1.965 5.05871 1.86667 5.29349 1.86667 5.5383V31.3837C1.86667 31.6285 1.965 31.8633 2.14003 32.0364C2.31507 32.2095 2.55246 32.3067 2.8 32.3067H14V34.1528H2.8C2.05739 34.1528 1.3452 33.8611 0.820101 33.3418C0.294999 32.8225 0 32.1181 0 31.3837V5.5383C0 4.80387 0.294999 4.09953 0.820101 3.58021C1.3452 3.0609 2.05739 2.76915 2.8 2.76915H5.6ZM8.4 1.8461C8.15246 1.8461 7.91507 1.94335 7.74003 2.11645C7.565 2.28956 7.46667 2.52434 7.46667 2.76915V4.61525C7.46667 4.86006 7.565 5.09484 7.74003 5.26794C7.91507 5.44105 8.15246 5.5383 8.4 5.5383H15.8667C16.1142 5.5383 16.3516 5.44105 16.5266 5.26794C16.7017 5.09484 16.8 4.86006 16.8 4.61525V2.76915C16.8 2.52434 16.7017 2.28956 16.5266 2.11645C16.3516 1.94335 16.1142 1.8461 15.8667 1.8461H8.4ZM11.2 11.0766V13.8457H8.4V15.6918H11.2V18.461H13.0667V15.6918H15.8667V13.8457H13.0667V11.0766H11.2ZM15.8667 21.2301C15.6191 21.2301 15.3817 21.3274 15.2067 21.5005C15.0317 21.6736 14.9333 21.9084 14.9333 22.1532V28.4198C14.9334 29.4834 15.1989 30.5306 15.7064 31.4684C16.2139 32.4062 16.9477 33.2056 17.8425 33.7956L20.9487 35.8448C21.102 35.946 21.2823 36 21.4667 36C21.651 36 21.8313 35.946 21.9847 35.8448L25.0908 33.7956C25.9855 33.2057 26.7192 32.4064 27.2267 31.4688C27.7342 30.5312 27.9998 29.4842 28 28.4207V22.1532C28 21.9084 27.9017 21.6736 27.7266 21.5005C27.5516 21.3274 27.3142 21.2301 27.0667 21.2301H15.8667ZM24.9265 26.498L21.1932 30.1902C21.0182 30.3632 20.7808 30.4604 20.5333 30.4604C20.2858 30.4604 20.0485 30.3632 19.8735 30.1902L18.0068 28.3441L19.3265 27.0389L20.5333 28.2324L23.6068 25.1928L24.9265 26.498Z" fill="#FF9696"/>
</svg>
