<svg width="38" height="37" viewBox="0 0 38 37" fill="none" xmlns="http://www.w3.org/2000/svg">
<path d="M37.2578 11.5625H33.9922V0.722656C33.9922 0.323605 33.6599 0 33.25 0H4.75C4.34009 0 4.00781 0.323605 4.00781 0.722656V11.5625H0.742188C0.332277 11.5625 0 11.8861 0 12.2852V36.2773C0 36.6764 0.332277 37 0.742188 37H37.2578C37.6677 37 38 36.6764 38 36.2773V12.2852C38 11.8861 37.6677 11.5625 37.2578 11.5625ZM25.3828 20.2344V35.5547H19.7422V20.2344H25.3828ZM26.8672 20.2344H36.5156V32.0859H26.8672V20.2344ZM15.6602 13.0078C16.0701 13.0078 16.4023 12.6842 16.4023 12.2852C16.4023 11.8861 16.0701 11.5625 15.6602 11.5625H5.49219V1.44531H32.5078V11.5625H22.3398C21.9299 11.5625 21.5977 11.8861 21.5977 12.2852C21.5977 12.6842 21.9299 13.0078 22.3398 13.0078H36.5156V18.7891H1.48438V13.0078H15.6602ZM11.1328 32.0859H1.48438V20.2344H11.1328V32.0859ZM1.48438 33.5312H11.1328V35.5547H1.48438V33.5312ZM12.6172 20.2344H18.2578V35.5547H12.6172V20.2344ZM36.5156 35.5547H26.8672V33.5312H36.5156V35.5547Z" fill="#FF9696"/>
<path d="M23.3999 10.1171C23.7959 10.1895 24.1747 9.92251 24.2461 9.52032L24.8228 6.2743L25.7751 9.55347C25.7777 9.5622 25.7804 9.57093 25.7833 9.57966C25.9012 9.93627 26.2284 10.1751 26.5985 10.1751H26.6029C26.9747 10.1733 27.3017 9.93057 27.4166 9.57138C27.4194 9.56287 27.4219 9.55428 27.4243 9.54555L28.3437 6.26926L28.9567 9.52779C29.0323 9.92924 29.414 10.1922 29.8089 10.1157C30.2041 10.039 30.4632 9.65144 30.3877 9.24999L29.3028 3.48323C29.3022 3.48027 29.3017 3.47738 29.3012 3.47442C29.2233 3.08592 28.8966 2.79887 28.507 2.77645C28.1169 2.75492 27.7609 3.00178 27.6404 3.37896C27.6377 3.38747 27.6351 3.39606 27.6327 3.40471L26.5889 7.12471L25.5063 3.39724C25.5038 3.38843 25.501 3.37963 25.4982 3.37097C25.3738 2.99497 25.0142 2.75122 24.6252 2.77749C24.2356 2.80405 23.912 3.09473 23.8383 3.48426C23.8378 3.487 23.8373 3.48981 23.8368 3.49255L22.8125 9.25747C22.741 9.65958 23.004 10.0445 23.3999 10.1171Z" fill="#FF9696"/>
<path d="M13.9728 5.73515H12.169C11.7527 5.73515 11.4153 6.06652 11.4153 6.47515C11.4153 6.88377 11.7527 7.21515 12.169 7.21515H13.1319C12.9395 7.99962 12.411 8.69515 11.3701 8.69515C10.1233 8.69515 9.10895 7.69925 9.10895 6.47515C9.10895 5.25104 10.1233 4.25515 11.3701 4.25515C11.8233 4.25515 12.2604 4.38613 12.6339 4.63388C12.979 4.86269 13.4474 4.77359 13.6804 4.43489C13.9134 4.09619 13.8226 3.63621 13.4777 3.4074C12.8541 2.99382 12.1253 2.77515 11.3702 2.77515C9.29218 2.77515 7.60156 4.43497 7.60156 6.47515C7.60156 8.51533 9.29218 10.1751 11.3702 10.1751C13.3463 10.1751 14.7266 8.65363 14.7266 6.47515C14.7266 6.06652 14.3891 5.73515 13.9728 5.73515Z" fill="#FF9696"/>
<path d="M18.0292 9.43516C18.0292 9.84378 18.3592 10.1751 18.7662 10.1751C19.1732 10.1751 19.5031 9.84378 19.5031 9.43516V6.63105L21.2538 3.93439C21.476 3.592 21.3798 3.13358 21.0388 2.9104C20.6979 2.687 20.2412 2.78386 20.019 3.12618L18.7661 5.05629L17.5028 3.11108C17.2805 2.76877 16.8239 2.67205 16.4829 2.89545C16.142 3.11871 16.0458 3.57713 16.2682 3.91945L18.0292 6.63113V9.43516Z" fill="#FF9696"/>
<path d="M4.95531 30.3031C5.09218 30.4511 5.27152 30.5251 5.45086 30.5251C5.6302 30.5251 5.80961 30.4511 5.94641 30.3031L8.81975 27.1945C9.09342 26.8984 9.09342 26.4183 8.81975 26.1221C8.54608 25.8261 8.10232 25.8261 7.82859 26.1221L4.95524 29.2307C4.68157 29.5269 4.68157 30.007 4.95531 30.3031Z" fill="#FF9696"/>
<path d="M3.07768 26.6029C3.22976 26.7509 3.42903 26.825 3.62829 26.825C3.82756 26.825 4.02691 26.7509 4.17891 26.6029L7.37155 23.4943C7.67563 23.1982 7.67563 22.7181 7.37155 22.422C7.06747 22.126 6.5744 22.126 6.27024 22.422L3.0776 25.5306C2.7736 25.8267 2.7736 26.3068 3.07768 26.6029Z" fill="#FF9696"/>
<path d="M34.4477 26.1221C34.1436 25.8261 33.6506 25.8261 33.3464 26.1221L30.1538 29.2307C29.8498 29.5268 29.8498 30.0069 30.1538 30.3031C30.3059 30.4511 30.5052 30.5251 30.7044 30.5251C30.9037 30.5251 31.103 30.4511 31.255 30.3031L34.4476 27.1945C34.7518 26.8983 34.7518 26.4182 34.4477 26.1221Z" fill="#FF9696"/>
<path d="M32.5473 22.422C32.2433 22.126 31.7502 22.126 31.446 22.422L28.2534 25.5306C27.9494 25.8266 27.9494 26.3067 28.2534 26.6029C28.4055 26.7509 28.6048 26.825 28.8041 26.825C29.0033 26.825 29.2027 26.7509 29.3547 26.6029L32.5473 23.4943C32.8514 23.1981 32.8514 22.718 32.5473 22.422Z" fill="#FF9696"/>
<path d="M19.0008 11.5625C18.7509 11.5625 18.5058 11.636 18.3291 11.7651C18.1524 11.8948 18.0508 12.073 18.0508 12.2562C18.0508 12.4387 18.1524 12.6177 18.3291 12.7467C18.5058 12.8757 18.7509 12.95 19.0008 12.95C19.2506 12.95 19.4957 12.8758 19.6724 12.7467C19.8491 12.6177 19.9508 12.4387 19.9508 12.2562C19.9508 12.073 19.8491 11.8948 19.6724 11.7651C19.4957 11.636 19.2506 11.5625 19.0008 11.5625Z" fill="#FF9696"/>
</svg>
