<svg width="75" height="75" viewBox="0 0 75 75" fill="none" xmlns="http://www.w3.org/2000/svg">
<path d="M45.4749 55.5951C45.4749 55.5951 47.4432 59.8197 54.5612 60.6571C54.5612 60.6571 50.7611 61.2328 50.018 61.6515C49.5451 61.9181 48.228 61.2515 47.3331 60.7317C46.1318 60.034 44.584 60.594 44.1158 61.9019C44.1083 61.9229 44.1008 61.9441 44.0935 61.9656C43.3608 64.1114 38.6503 62.803 38.6503 62.803C38.6503 62.803 37.2895 63.0123 38.6503 64.4255C40.0111 65.8386 43.3084 65.7339 43.3084 65.7339C43.3084 65.7339 47.1291 64.5301 50.6358 65.2629C54.1425 65.9956 58.8065 65.0976 61.5222 64.8965C63.6727 64.7372 69.8439 64.2161 68.3785 59.6627C68.3785 59.6627 67.2794 56.7841 61.2605 55.1616C55.2416 53.5391 53.8284 52.9634 53.8284 52.9634L45.4749 55.5951Z" fill="#FBC9B2"/>
<path d="M44.9087 45.316H46.7214L49.1938 46.8719L51.0069 49.3443L48.3696 52.9632L45.4852 54.3716L44.1683 53.8091L36.09 49.2619C36.09 49.2619 30.4858 45.4709 29.8265 44.8116C29.1672 44.1523 26.6124 41.9271 26.6124 41.9271C26.6124 41.9271 18.7006 33.6857 15.2392 31.8726C11.7779 30.0595 6.6682 25.0322 6.6682 25.0322C6.6682 25.0322 5.67923 23.384 7.49233 23.1367C7.49233 23.1367 9.0582 23.5488 9.55268 24.3729C10.0472 25.1971 14.7448 26.2684 14.7448 26.2684C14.7448 26.2684 16.5579 26.1036 16.8875 28.3288C16.8875 28.3288 17.7117 29.8947 21.5851 31.1309C25.4586 32.3671 30.4034 39.2898 30.4034 39.2898L37.2438 43.493C37.2438 43.493 41.3779 44.2347 44.9087 45.316Z" fill="#FBC9B2"/>
<path d="M44.273 31.0192C44.5039 31.0358 42.5456 30.2916 40.9727 29.9191C40.5072 29.8089 39.5856 31.5453 39.5856 31.5453C39.5856 31.5453 39.0116 32.0236 38.5811 32.5498C38.5811 32.5498 37.6723 32.5976 37.6723 33.4107C37.6723 34.2239 38.0288 34.7615 37.0027 36.385C35.6006 38.6034 38.1426 41.1136 38.1426 41.1136L42.5032 39.7722L47.6989 38.5286L47.9081 34.1282L44.273 31.0192Z" fill="#FBC9B2"/>
<path d="M36.7134 38.7544C36.7134 38.7544 38.3616 36.9246 39.8301 36.4577C40.1876 36.344 40.5175 36.1487 40.7563 35.8595C40.9076 35.6764 41.0348 35.4485 41.0683 35.1806L41.3553 34.9415C41.3553 34.9415 41.3529 37.1417 42.3107 37.1417C43.2685 37.1417 43.5555 36.3851 43.5555 36.3851C43.5555 36.3851 43.8425 35.085 43.5555 33.9849C43.2685 32.8848 44.273 32.8848 44.273 32.8848L48.5777 35.4769L47.699 39.4376C47.699 39.4376 46.4997 43.0204 43.767 43.3184C41.4293 43.5733 39.3942 42.3074 39.3942 42.3074C39.3942 42.3074 37.4118 41.4951 36.7134 38.7544Z" fill="#293B44"/>
<path d="M34.5863 18.7046L33.3778 16.1249C33.3778 16.1249 31.7276 16.1249 31.4765 15.515C31.4765 15.515 30.8196 15.3357 33.0314 15.3715C33.0314 15.3715 33.5572 14.3312 32.6245 13.0757C31.6918 11.8201 32.4451 11.9995 32.4451 11.9995C32.4451 11.9995 33.1984 12.2147 32.6604 11.3179C32.1223 10.421 31.0461 9.73945 31.6559 9.30897C31.6559 9.30897 32.0146 9.2731 32.194 9.70358C32.194 9.70358 32.194 8.91437 32.8038 9.45246C33.4137 9.99056 34.5863 11.5331 34.5863 11.5331C34.5863 11.5331 35.3867 12.6093 35.3508 12.0712C35.315 11.5331 35.4585 10.5645 36.0324 10.8515C36.6064 11.1385 36.714 13.1115 36.714 13.1115C36.714 13.1115 37.1445 15.0128 36.714 15.7303C36.2835 16.4477 37.1115 17.1146 37.1115 17.1146V19.3535H36.2118H35.315L34.5863 18.7046Z" fill="#FBC9B2"/>
<path d="M44.1683 53.8094C44.1683 53.8094 47.6091 54.2014 48.306 49.062C48.306 49.062 48.7851 45.4905 44.9087 45.3163C44.9087 45.3163 46.6074 44.5759 49.09 45.3163C49.09 45.3163 51.7903 45.6647 51.0935 43.0515C50.3966 40.4382 47.6883 39.9591 47.6883 39.9591C47.6883 39.9591 44.5603 38.9573 45.0829 34.9068C45.0829 34.9068 43.6892 33.2081 42.4697 30.0287C41.2501 26.8492 38.9853 24.8892 38.9853 24.8892L34.5863 18.7045C34.5863 18.7045 36.6334 19.7933 36.8947 16.7881C36.8947 16.7881 38.9418 19.9676 40.3355 20.7951C41.7292 21.6226 45.8234 27.5896 45.8234 27.5896C45.8234 27.5896 47.522 31.0304 50.0917 31.4224C52.6614 31.8144 54.1423 32.4677 54.1423 32.4677C54.1423 32.4677 57.888 33.6872 59.7173 38.2605C59.7173 38.2605 64.1163 45.5776 55.2747 52.8512C55.2747 52.8512 48.7851 57.2938 45.4749 55.5952C45.4749 55.5952 44.4732 55.1596 44.1683 53.8094Z" fill="#FF7676"/>
</svg>
