<svg width="19" height="15" viewBox="0 0 19 15" fill="none" xmlns="http://www.w3.org/2000/svg">
<path d="M18.7324 1.73609C18.0243 2.04068 17.316 2.2309 16.6081 2.3073C17.4076 1.82762 17.9484 1.14995 18.2301 0.274347C17.4988 0.708269 16.7185 1.00514 15.8886 1.16511C15.1576 0.388478 14.2593 0 13.1931 0C12.1729 0 11.303 0.359715 10.5832 1.0793C9.86377 1.79885 9.50402 2.6687 9.50402 3.68896C9.50402 3.96302 9.53442 4.24485 9.59539 4.53416C8.08772 4.45803 6.67343 4.07924 5.35226 3.39777C4.03118 2.71622 2.90999 1.80822 1.9887 0.673746C1.65367 1.24468 1.48609 1.86534 1.48609 2.53537C1.48609 3.16735 1.63455 3.75372 1.93166 4.29434C2.22856 4.83487 2.6284 5.27263 3.13097 5.6077C2.53695 5.58482 1.98114 5.42869 1.46345 5.13934V5.18502C1.46345 6.07595 1.74328 6.85815 2.30285 7.53221C2.86251 8.2062 3.56877 8.63044 4.42149 8.80565C4.10166 8.8893 3.77799 8.93119 3.45064 8.93119C3.23742 8.93119 3.00516 8.91218 2.75394 8.87438C2.98996 9.61281 3.424 10.2198 4.0559 10.696C4.68792 11.1718 5.40367 11.4171 6.20319 11.4327C4.86314 12.4833 3.33651 13.0086 1.62331 13.0086C1.29584 13.0086 0.998967 12.9937 0.732422 12.9631C2.44567 14.067 4.33397 14.619 6.39744 14.619C7.70709 14.619 8.93681 14.4117 10.0862 13.9966C11.2361 13.5818 12.2183 13.0259 13.0331 12.329C13.8476 11.6324 14.5502 10.831 15.1402 9.92492C15.7303 9.0188 16.1699 8.07282 16.4594 7.08681C16.7487 6.10059 16.8934 5.11286 16.8934 4.12284C16.8934 3.90962 16.8896 3.7498 16.8819 3.64315C17.6055 3.11802 18.2222 2.48212 18.7324 1.73609Z" fill="#333333" fill-opacity="0.53"/>
</svg>
